<svg width="24" height="24" viewBox="0 0 24 24" fill="none" xmlns="http://www.w3.org/2000/svg">
<path d="M12 11.648C12.6244 11.648 13.2349 11.4628 13.754 11.1159C14.2732 10.7689 14.6779 10.2758 14.9168 9.6989C15.1557 9.12198 15.2182 8.48716 15.0963 7.87473C14.9744 7.26231 14.6736 6.69978 14.232 6.25831C13.7904 5.81684 13.2278 5.51624 12.6153 5.39454C12.0028 5.27284 11.368 5.3355 10.7912 5.5746C10.2143 5.8137 9.72134 6.21849 9.37456 6.73779C9.02779 7.25709 8.8428 7.86756 8.843 8.492C8.84327 9.32911 9.17599 10.1319 9.76802 10.7237C10.36 11.3155 11.1629 11.648 12 11.648ZM12 6.688C12.356 6.688 12.704 6.79357 13 6.99135C13.296 7.18914 13.5267 7.47026 13.663 7.79917C13.7992 8.12808 13.8349 8.49 13.7654 8.83916C13.696 9.18833 13.5245 9.50906 13.2728 9.76079C13.0211 10.0125 12.7003 10.184 12.3512 10.2534C12.002 10.3229 11.6401 10.2872 11.3112 10.151C10.9823 10.0147 10.7011 9.78404 10.5034 9.48803C10.3056 9.19202 10.2 8.84401 10.2 8.488C10.2 8.01061 10.3896 7.55277 10.7272 7.21521C11.0648 6.87764 11.5226 6.688 12 6.688ZM12 2C10.1548 2.00053 8.3853 2.73377 7.08054 4.03854C5.77577 5.3433 5.04253 7.11279 5.042 8.958V15.042C5.04253 16.8872 5.77577 18.6567 7.08054 19.9615C8.3853 21.2662 10.1548 21.9995 12 22C13.8452 21.9995 15.6147 21.2662 16.9195 19.9615C18.2242 18.6567 18.9575 16.8872 18.958 15.042V8.958C18.9575 7.11279 18.2242 5.3433 16.9195 4.03854C15.6147 2.73377 13.8452 2.00053 12 2ZM12 4.3C12.8281 4.3 13.6377 4.54552 14.3263 5.00553C15.0149 5.46554 15.5517 6.11938 15.8688 6.8844C16.1859 7.64942 16.2691 8.49128 16.1078 9.30357C15.9465 10.1159 15.5481 10.8621 14.9628 11.4479C14.3775 12.0338 13.6316 12.433 12.8195 12.595C12.0074 12.7571 11.1654 12.6747 10.4001 12.3584C9.63476 12.042 8.98041 11.5058 8.51975 10.8176C8.05908 10.1295 7.81279 9.32014 7.812 8.492C7.81174 7.94176 7.91985 7.39686 8.13018 6.8884C8.3405 6.37995 8.64892 5.9179 9.03781 5.52864C9.4267 5.13937 9.88845 4.83052 10.3967 4.61971C10.905 4.4089 11.4498 4.30026 12 4.3ZM6.288 15.073H17.712C17.821 22.977 6.177 22.975 6.288 15.073Z" fill="black"/>
</svg>
